<svg width="250" height="35" viewBox="0 0 250 35" fill="none" xmlns="http://www.w3.org/2000/svg">
<path d="M191 4H245C247.761 4 250 6.23858 250 9V26C250 28.7614 247.761 31 245 31H196C193.239 31 191 28.7614 191 26V4Z" fill="#F65D25"/>
<path d="M206.119 22V11.8182H209.847C210.57 11.8182 211.168 11.9375 211.642 12.1761C212.116 12.4115 212.471 12.7313 212.706 13.1357C212.941 13.5367 213.059 13.9891 213.059 14.4929C213.059 14.9171 212.981 15.2751 212.825 15.5668C212.67 15.8551 212.461 16.0871 212.199 16.2628C211.94 16.4351 211.655 16.5611 211.344 16.6406V16.7401C211.682 16.7566 212.012 16.866 212.333 17.0682C212.658 17.267 212.926 17.5504 213.138 17.9183C213.351 18.2862 213.457 18.7337 213.457 19.2607C213.457 19.781 213.334 20.2483 213.089 20.6626C212.847 21.0736 212.472 21.4001 211.965 21.642C211.458 21.8807 210.81 22 210.021 22H206.119ZM207.655 20.6825H209.872C210.608 20.6825 211.135 20.54 211.453 20.255C211.771 19.9699 211.93 19.6136 211.93 19.1861C211.93 18.8646 211.849 18.5696 211.687 18.3011C211.524 18.0327 211.292 17.8189 210.991 17.6598C210.692 17.5007 210.338 17.4212 209.927 17.4212H207.655V20.6825ZM207.655 16.223H209.713C210.058 16.223 210.368 16.1567 210.643 16.0241C210.921 15.8916 211.142 15.706 211.304 15.4673C211.47 15.2254 211.553 14.9403 211.553 14.6122C211.553 14.1913 211.405 13.8383 211.11 13.5533C210.815 13.2682 210.363 13.1257 209.753 13.1257H207.655V16.223ZM216.646 11.8182V22H215.159V11.8182H216.646ZM221.862 22.1541C221.146 22.1541 220.522 21.9901 219.988 21.6619C219.454 21.3338 219.04 20.8748 218.745 20.2848C218.45 19.6948 218.303 19.0054 218.303 18.2166C218.303 17.4245 218.45 16.7318 218.745 16.1385C219.04 15.5452 219.454 15.0845 219.988 14.7564C220.522 14.4283 221.146 14.2642 221.862 14.2642C222.578 14.2642 223.203 14.4283 223.737 14.7564C224.27 15.0845 224.685 15.5452 224.98 16.1385C225.275 16.7318 225.422 17.4245 225.422 18.2166C225.422 19.0054 225.275 19.6948 224.98 20.2848C224.685 20.8748 224.27 21.3338 223.737 21.6619C223.203 21.9901 222.578 22.1541 221.862 22.1541ZM221.867 20.9062C222.331 20.9062 222.716 20.7836 223.021 20.5384C223.326 20.2931 223.551 19.9666 223.697 19.5589C223.846 19.1513 223.921 18.7022 223.921 18.2116C223.921 17.7244 223.846 17.277 223.697 16.8693C223.551 16.4583 223.326 16.1286 223.021 15.88C222.716 15.6314 222.331 15.5071 221.867 15.5071C221.4 15.5071 221.012 15.6314 220.704 15.88C220.399 16.1286 220.172 16.4583 220.023 16.8693C219.877 17.277 219.804 17.7244 219.804 18.2116C219.804 18.7022 219.877 19.1513 220.023 19.5589C220.172 19.9666 220.399 20.2931 220.704 20.5384C221.012 20.7836 221.4 20.9062 221.867 20.9062ZM230.283 25.0227C229.676 25.0227 229.154 24.9432 228.717 24.7841C228.283 24.625 227.928 24.4145 227.653 24.1527C227.378 23.8909 227.172 23.6042 227.037 23.2926L228.314 22.7656C228.404 22.9115 228.523 23.0656 228.672 23.228C228.825 23.3937 229.03 23.5346 229.289 23.6506C229.551 23.7666 229.887 23.8246 230.298 23.8246C230.861 23.8246 231.327 23.687 231.695 23.4119C232.063 23.1402 232.247 22.706 232.247 22.1094V20.608H232.152C232.063 20.7704 231.934 20.951 231.765 21.1499C231.599 21.3487 231.37 21.5211 231.078 21.6669C230.787 21.8127 230.407 21.8857 229.94 21.8857C229.337 21.8857 228.793 21.7448 228.309 21.4631C227.829 21.178 227.448 20.7588 227.166 20.2053C226.887 19.6484 226.748 18.964 226.748 18.152C226.748 17.34 226.886 16.6439 227.161 16.0639C227.439 15.4839 227.82 15.0398 228.304 14.7315C228.788 14.42 229.337 14.2642 229.95 14.2642C230.424 14.2642 230.807 14.3438 231.098 14.5028C231.39 14.6586 231.617 14.8409 231.779 15.0497C231.945 15.2585 232.073 15.4425 232.162 15.6016H232.272V14.3636H233.728V22.169C233.728 22.8253 233.576 23.3639 233.271 23.7848C232.966 24.2057 232.553 24.5173 232.033 24.7195C231.516 24.9216 230.933 25.0227 230.283 25.0227ZM230.268 20.6527C230.696 20.6527 231.057 20.5533 231.352 20.3544C231.65 20.1522 231.876 19.8639 232.028 19.4893C232.184 19.1115 232.262 18.6591 232.262 18.1321C232.262 17.6184 232.185 17.166 232.033 16.7749C231.881 16.3838 231.657 16.0788 231.362 15.8601C231.067 15.638 230.702 15.527 230.268 15.527C229.821 15.527 229.448 15.643 229.15 15.875C228.851 16.1037 228.626 16.4152 228.473 16.8097C228.324 17.2041 228.25 17.6449 228.25 18.1321C228.25 18.6326 228.326 19.0717 228.478 19.4496C228.631 19.8274 228.856 20.1224 229.154 20.3345C229.456 20.5466 229.827 20.6527 230.268 20.6527Z" fill="white"/>
<path d="M183 4H192V12L183 4Z" fill="#F65D25"/>
<path d="M107.974 17.4127C108.933 17.7161 109.683 18.2271 110.226 18.9458C110.77 19.6484 111.041 20.5188 111.041 21.5568C111.041 23.0259 110.466 24.1598 109.316 24.9583C108.182 25.7408 106.52 26.1321 104.332 26.1321H95.6577V9.36401H103.853C105.897 9.36401 107.463 9.75526 108.549 10.5378C109.651 11.3203 110.203 12.3823 110.203 13.7237C110.203 14.5382 110.003 15.2647 109.603 15.9035C109.22 16.5424 108.677 17.0454 107.974 17.4127ZM99.5156 12.2864V16.2389H103.373C104.332 16.2389 105.059 16.0712 105.554 15.7359C106.049 15.4005 106.297 14.9054 106.297 14.2507C106.297 13.596 106.049 13.1088 105.554 12.7895C105.059 12.4541 104.332 12.2864 103.373 12.2864H99.5156ZM104.044 23.2096C105.067 23.2096 105.834 23.0419 106.345 22.7066C106.872 22.3712 107.135 21.8522 107.135 21.1496C107.135 19.7602 106.105 19.0655 104.044 19.0655H99.5156V23.2096H104.044ZM119.85 26.3237C118.493 26.3237 117.271 26.0442 116.184 25.4853C115.115 24.9104 114.276 24.1199 113.668 23.1138C113.062 22.1077 112.758 20.9659 112.758 19.6883C112.758 18.4108 113.062 17.2689 113.668 16.2629C114.276 15.2568 115.115 14.4742 116.184 13.9153C117.271 13.3404 118.493 13.053 119.85 13.053C121.209 13.053 122.423 13.3404 123.493 13.9153C124.563 14.4742 125.402 15.2568 126.009 16.2629C126.616 17.2689 126.919 18.4108 126.919 19.6883C126.919 20.9659 126.616 22.1077 126.009 23.1138C125.402 24.1199 124.563 24.9104 123.493 25.4853C122.423 26.0442 121.209 26.3237 119.85 26.3237ZM119.85 23.2575C120.809 23.2575 121.592 22.9382 122.199 22.2994C122.822 21.6446 123.133 20.7742 123.133 19.6883C123.133 18.6024 122.822 17.7401 122.199 17.1013C121.592 16.4466 120.809 16.1191 119.85 16.1191C118.892 16.1191 118.101 16.4466 117.478 17.1013C116.855 17.7401 116.544 18.6024 116.544 19.6883C116.544 20.7742 116.855 21.6446 117.478 22.2994C118.101 22.9382 118.892 23.2575 119.85 23.2575ZM135.552 26.3237C134.195 26.3237 132.973 26.0442 131.886 25.4853C130.816 24.9104 129.978 24.1199 129.37 23.1138C128.763 22.1077 128.459 20.9659 128.459 19.6883C128.459 18.4108 128.763 17.2689 129.37 16.2629C129.978 15.2568 130.816 14.4742 131.886 13.9153C132.973 13.3404 134.195 13.053 135.552 13.053C136.91 13.053 138.125 13.3404 139.194 13.9153C140.265 14.4742 141.103 15.2568 141.71 16.2629C142.318 17.2689 142.621 18.4108 142.621 19.6883C142.621 20.9659 142.318 22.1077 141.71 23.1138C141.103 24.1199 140.265 24.9104 139.194 25.4853C138.125 26.0442 136.91 26.3237 135.552 26.3237ZM135.552 23.2575C136.51 23.2575 137.294 22.9382 137.9 22.2994C138.523 21.6446 138.835 20.7742 138.835 19.6883C138.835 18.6024 138.523 17.7401 137.9 17.1013C137.294 16.4466 136.51 16.1191 135.552 16.1191C134.593 16.1191 133.803 16.4466 133.18 17.1013C132.557 17.7401 132.245 18.6024 132.245 19.6883C132.245 20.7742 132.557 21.6446 133.18 22.2994C133.803 22.9382 134.593 23.2575 135.552 23.2575ZM149.456 26.3237C148.387 26.3237 147.34 26.196 146.317 25.9404C145.296 25.669 144.481 25.3336 143.873 24.9343L145.119 22.2515C145.694 22.6187 146.389 22.9222 147.204 23.1617C148.019 23.3853 148.818 23.4971 149.6 23.4971C151.182 23.4971 151.972 23.1059 151.972 22.3233C151.972 21.956 151.757 21.6925 151.325 21.5328C150.894 21.3731 150.232 21.2374 149.337 21.1256C148.282 20.9659 147.412 20.7823 146.725 20.5746C146.039 20.367 145.439 19.9997 144.928 19.4727C144.433 18.9458 144.185 18.1952 144.185 17.221C144.185 16.4066 144.417 15.688 144.88 15.0651C145.359 14.4263 146.046 13.9313 146.94 13.58C147.851 13.2286 148.922 13.053 150.151 13.053C151.062 13.053 151.965 13.1567 152.859 13.3644C153.769 13.556 154.521 13.8275 155.111 14.1788L153.865 16.8378C152.731 16.1989 151.493 15.8796 150.151 15.8796C149.353 15.8796 148.754 15.9914 148.354 16.215C147.955 16.4385 147.755 16.7259 147.755 17.0773C147.755 17.4766 147.971 17.756 148.402 17.9157C148.833 18.0754 149.521 18.2271 150.463 18.3708C151.517 18.5465 152.38 18.7381 153.051 18.9458C153.722 19.1374 154.305 19.4967 154.8 20.0237C155.295 20.5507 155.543 21.2853 155.543 22.2275C155.543 23.0259 155.303 23.7366 154.824 24.3594C154.345 24.9822 153.642 25.4693 152.715 25.8206C151.805 26.156 150.719 26.3237 149.456 26.3237ZM166.164 25.5092C165.796 25.7807 165.341 25.9883 164.798 26.1321C164.271 26.2598 163.711 26.3237 163.121 26.3237C161.588 26.3237 160.397 25.9325 159.551 25.1499C158.72 24.3674 158.305 23.2176 158.305 21.7005V16.4066H156.316V13.5321H158.305V10.394H162.043V13.5321H165.254V16.4066H162.043V21.6526C162.043 22.1956 162.178 22.6187 162.45 22.9222C162.738 23.2096 163.136 23.3533 163.648 23.3533C164.239 23.3533 164.742 23.1936 165.158 22.8743L166.164 25.5092Z" fill="#1C1E2F"/>
<path d="M169.676 26.3237C169.021 26.3237 168.47 26.1001 168.022 25.6529C167.576 25.2057 167.351 24.6469 167.351 23.9761C167.351 23.2894 167.576 22.7385 168.022 22.3233C168.47 21.8921 169.021 21.6765 169.676 21.6765C170.331 21.6765 170.882 21.8921 171.329 22.3233C171.777 22.7385 172 23.2894 172 23.9761C172 24.6469 171.777 25.2057 171.329 25.6529C170.882 26.1001 170.331 26.3237 169.676 26.3237Z" fill="#F4461D"/>
<path d="M44.4666 9.36401H52.0864C53.9075 9.36401 55.5129 9.71535 56.9027 10.418C58.3085 11.1047 59.3948 12.0788 60.1615 13.3404C60.9443 14.6021 61.3357 16.0712 61.3357 17.748C61.3357 19.4248 60.9443 20.894 60.1615 22.1556C59.3948 23.4173 58.3085 24.3994 56.9027 25.102C55.5129 25.7887 53.9075 26.1321 52.0864 26.1321H44.4666V9.36401ZM51.8947 22.9461C53.572 22.9461 54.9059 22.483 55.8963 21.5568C56.9027 20.6146 57.4059 19.345 57.4059 17.748C57.4059 16.151 56.9027 14.8895 55.8963 13.9632C54.9059 13.0211 53.572 12.5499 51.8947 12.5499H48.3484V22.9461H51.8947ZM76.6274 19.7362C76.6274 19.7842 76.6035 20.1195 76.5555 20.7423H66.8031C66.9788 21.5408 67.3941 22.1716 68.0491 22.6347C68.704 23.0978 69.5187 23.3294 70.4932 23.3294C71.1641 23.3294 71.7551 23.2336 72.2664 23.0419C72.7935 22.8343 73.2807 22.5149 73.7281 22.0838L75.7169 24.2397C74.5028 25.629 72.7296 26.3237 70.3974 26.3237C68.9436 26.3237 67.6577 26.0442 66.5395 25.4853C65.4213 24.9104 64.5586 24.1199 63.9516 23.1138C63.3445 22.1077 63.0411 20.9659 63.0411 19.6883C63.0411 18.4267 63.3366 17.2929 63.9277 16.2868C64.5347 15.2647 65.3573 14.4742 66.3957 13.9153C67.4501 13.3404 68.6242 13.053 69.9181 13.053C71.18 13.053 72.3223 13.3244 73.3447 13.8674C74.367 14.4104 75.1658 15.1929 75.7408 16.215C76.3318 17.221 76.6274 18.3948 76.6274 19.7362ZM69.9421 15.8796C69.0954 15.8796 68.3846 16.1191 67.8095 16.5982C67.2344 17.0773 66.8829 17.732 66.7552 18.5625H73.105C72.9772 17.748 72.6258 17.1013 72.0507 16.6222C71.4756 16.1271 70.7727 15.8796 69.9421 15.8796ZM91.6776 13.2446L86.2383 26.1321H82.3804L76.9651 13.2446H80.8229L84.3932 22.0119L88.0834 13.2446H91.6776Z" fill="#F4461D"/>
<path d="M34.7552 15.5617H3.84426C4.00542 14.3672 4.3235 13.2046 4.79565 12.0888C5.48576 10.4578 6.47477 8.99174 7.73466 7.73225C7.95547 7.51151 8.18266 7.29893 8.4159 7.09558C8.52701 7.21376 8.63989 7.33016 8.75491 7.44515C10.154 8.84375 11.7834 9.94177 13.5985 10.7094C15.4786 11.504 17.4747 11.9075 19.5312 11.9075H33.9628C33.5238 10.5909 32.9316 9.34414 32.2074 8.18828C29.1271 3.27063 23.6591 0 17.4268 0C14.4991 0 11.7401 0.721483 9.3183 1.99658C8.20681 2.5818 7.16631 3.2834 6.21314 4.08545C2.8602 6.90572 0.585744 10.9674 0.098334 15.5617C0.0333696 16.1729 0 16.7929 0 17.4213C0 18.0498 0.0333696 18.6698 0.098334 19.281H31.009C30.8478 20.4755 30.5297 21.6381 30.0576 22.7539C29.3674 24.3849 28.3784 25.851 27.1185 27.1101C26.8977 27.3308 26.6705 27.5434 26.4373 27.7471C26.3262 27.6289 26.2132 27.5122 26.0982 27.3971C24.6992 25.9986 23.0698 24.9005 21.2547 24.1329C19.3746 23.3384 17.3788 22.9349 15.3219 22.9349H0.890685C1.32981 24.2515 1.92195 25.4982 2.64615 26.654C5.72645 31.572 11.1944 34.8427 17.4268 34.8427C20.354 34.8427 23.1131 34.1212 25.5349 32.8461C26.6464 32.2613 27.6872 31.5593 28.6403 30.7576C31.9934 27.9366 34.2678 23.8753 34.7552 19.281C34.8202 18.6698 34.8535 18.0498 34.8535 17.4213C34.8535 16.7929 34.8202 16.1729 34.7552 15.5617ZM12.0925 4.7945C13.7799 4.08119 15.5747 3.71921 17.4268 3.71921C19.2788 3.71921 21.0733 4.08083 22.7606 4.7945C24.3921 5.4844 25.8586 6.47312 27.1185 7.73225C27.2677 7.88165 27.4132 8.03354 27.5548 8.18863H19.5312C16.4601 8.18863 13.6656 6.98096 11.5981 5.01524C11.7614 4.93823 11.9261 4.86478 12.0925 4.7945ZM22.7606 30.0482C21.0733 30.7615 19.2788 31.1234 17.4268 31.1234C15.5747 31.1234 13.7799 30.7615 12.0925 30.0482C10.461 29.3582 8.99454 28.3696 7.73466 27.1101C7.58555 26.961 7.44001 26.8092 7.29872 26.654H15.3219C18.3931 26.654 21.1876 27.8617 23.2551 29.8274C23.0918 29.9045 22.9271 29.9779 22.7606 30.0482Z" fill="#F4461D"/>
</svg>
