<svg width="31" height="31" viewBox="0 0 31 31" fill="none" xmlns="http://www.w3.org/2000/svg">
<path d="M30.1077 13.4808H3.3302C3.46981 12.446 3.74536 11.4389 4.15437 10.4723C4.7522 9.05935 5.60896 7.78936 6.70037 6.69829C6.89166 6.50707 7.08847 6.32291 7.29051 6.14675C7.38677 6.24913 7.48456 6.34996 7.5842 6.44958C8.79616 7.66115 10.2077 8.61235 11.7801 9.27732C13.4088 9.96564 15.138 10.3152 16.9194 10.3152H29.4213C29.0409 9.17464 28.5279 8.09463 27.9006 7.09333C25.2322 2.83328 20.4954 0 15.0964 0C12.5602 0 10.1702 0.625006 8.07224 1.7296C7.10938 2.23656 6.20802 2.84434 5.38231 3.53914C2.47773 5.98228 0.507418 9.50082 0.0851847 13.4808C0.0289074 14.0102 0 14.5473 0 15.0917C0 15.6362 0.0289074 16.1733 0.0851847 16.7027H26.8624C26.7228 17.7375 26.4473 18.7446 26.0382 19.7112C25.4403 21.1241 24.5836 22.3942 23.4922 23.4849C23.3009 23.6761 23.1041 23.8602 22.9021 24.0367C22.8058 23.9344 22.708 23.8333 22.6083 23.7336C21.3964 22.5221 19.9849 21.5708 18.4125 20.9058C16.7838 20.2176 15.0549 19.868 13.2731 19.868H0.771582C1.15199 21.0086 1.66495 22.0886 2.2923 23.0898C4.9607 27.3502 9.69748 30.1835 15.0964 30.1835C17.6323 30.1835 20.0224 29.5585 22.1203 28.4539C23.0832 27.9473 23.9848 27.3392 24.8105 26.6447C27.7152 24.2009 29.6854 20.6827 30.1077 16.7027C30.164 16.1733 30.1929 15.6362 30.1929 15.0917C30.1929 14.5473 30.164 14.0102 30.1077 13.4808ZM10.4755 4.15338C11.9372 3.53545 13.4921 3.22187 15.0964 3.22187C16.7008 3.22187 18.2554 3.53514 19.717 4.15338C21.1304 4.75102 22.4008 5.60752 23.4922 6.69829C23.6214 6.82771 23.7475 6.95929 23.8701 7.09364H16.9194C14.2591 7.09364 11.8382 6.04746 10.0472 4.3446C10.1887 4.27789 10.3313 4.21426 10.4755 4.15338ZM19.717 26.0301C18.2554 26.6481 16.7008 26.9616 15.0964 26.9616C13.4921 26.9616 11.9372 26.6481 10.4755 26.0301C9.06217 25.4324 7.79178 24.576 6.70037 23.4849C6.57121 23.3558 6.44512 23.2242 6.32273 23.0898H13.2731C15.9335 23.0898 18.3543 24.136 20.1454 25.8389C20.0039 25.9056 19.8613 25.9692 19.717 26.0301Z" fill="url(#paint0_linear_1401_21)"/>
<defs>
<linearGradient id="paint0_linear_1401_21" x1="-5.11328e-07" y1="6.70744" x2="46.8249" y2="19.6261" gradientUnits="userSpaceOnUse">
<stop stop-color="#F3451C"/>
<stop offset="1" stop-color="#FF933A"/>
</linearGradient>
</defs>
</svg>
